<svg width="128" height="128" viewBox="0 0 128 128" fill="none" xmlns="http://www.w3.org/2000/svg">
<g clip-path="url(#clip0_11_63)">
<rect width="128" height="128" rx="64" fill="#52B788"/>
<path d="M37.457 50.75C37.657 49.25 38.007 48.15 38.507 47.45C39.007 46.75 39.407 46.15 39.707 45.65L42.257 35.75C42.257 35.25 42.457 34.35 42.857 33.05C43.257 31.75 43.457 30.9 43.457 30.5H48.557L51.257 29.6H53.057C53.457 29.6 54.107 29.95 55.007 30.65C55.907 31.25 56.507 31.8 56.807 32.3L58.607 33.95C58.707 34.25 58.857 34.55 59.057 34.85C59.257 35.05 59.357 35.35 59.357 35.75V36.5C59.357 36.7 59.257 37.2 59.057 38C58.857 38.7 58.607 39.5 58.307 40.4C58.107 41.3 57.807 42.2 57.407 43.1C57.107 43.9 56.807 44.45 56.507 44.75V45.95L58.007 45.5L56.057 49.25L55.607 55.7C54.907 56.3 54.557 57.05 54.557 57.95L55.457 57.5H55.607C55.807 57.5 55.907 57.7 55.907 58.1L55.757 58.7C55.757 59.1 55.707 59.5 55.607 59.9C55.507 60.2 55.457 60.55 55.457 60.95L54.857 61.4L57.707 59.9C58.107 59.5 58.307 59.1 58.307 58.7L58.007 58.85C58.407 58.35 58.807 57.85 59.207 57.35C59.707 56.85 60.157 56.4 60.557 56L60.707 55.7C61.407 55 62.007 54.65 62.507 54.65C62.707 54.65 62.907 54.7 63.107 54.8C63.307 54.8 63.457 54.8 63.557 54.8L63.407 54.5C64.407 54 65.557 53.05 66.857 51.65C68.257 50.25 69.807 48.65 71.507 46.85C71.807 46.65 72.507 46.3 73.607 45.8C74.807 45.2 76.307 44.15 78.107 42.65L77.657 42.35L79.157 40.85C79.357 40.75 79.707 40.45 80.207 39.95C80.807 39.35 81.207 38.95 81.407 38.75L81.707 38.45H81.107L83.057 36.5C82.957 36.4 82.907 36.3 82.907 36.2C82.907 35.7 83.107 35.25 83.507 34.85C83.907 34.45 84.257 34.25 84.557 34.25C84.757 34.25 84.857 34.35 84.857 34.55C84.857 34.65 84.957 34.7 85.157 34.7L86.057 34.55C86.157 34.55 86.307 34.7 86.507 35C86.707 35.3 86.957 35.45 87.257 35.45C87.457 35.45 87.607 35.4 87.707 35.3C87.807 35.2 87.957 35.15 88.157 35.15C88.957 35.15 89.757 35.85 90.557 37.25C91.357 38.65 91.757 39.8 91.757 40.7V41.3L90.407 42.95C89.807 43.75 88.857 44.55 87.557 45.35C86.357 46.05 85.857 46.4 86.057 46.4L84.407 47.75C83.907 48.15 83.507 48.5 83.207 48.8C82.907 49 82.457 49.35 81.857 49.85C81.357 50.35 80.607 51.1 79.607 52.1C78.707 53 77.357 54.25 75.557 55.85C75.757 56.35 76.007 56.7 76.307 56.9C76.707 57.1 76.907 57.5 76.907 58.1L77.057 59.45C76.557 59.75 76.257 60.25 76.157 60.95C76.157 61.65 76.107 62.4 76.007 63.2C76.207 63.7 76.357 64.1 76.457 64.4C76.657 64.7 76.757 65.1 76.757 65.6L76.907 66.5C76.707 66.7 76.457 66.8 76.157 66.8C75.957 66.8 75.907 66.85 76.007 66.95C76.107 67.75 76.307 68.25 76.607 68.45C77.007 68.65 77.207 69.15 77.207 69.95C77.207 70.45 77.107 70.7 76.907 70.7C77.107 70.7 77.157 70.8 77.057 71C77.057 71.1 77.207 71.2 77.507 71.3L77.807 72.35C77.907 72.55 78.007 72.8 78.107 73.1C78.307 73.4 78.407 73.7 78.407 74H78.707C79.207 73.9 79.457 73.45 79.457 72.65V71.75L79.157 71.15C79.157 70.95 79.207 70.6 79.307 70.1C79.407 69.5 79.557 69.2 79.757 69.2C80.057 69.2 80.307 69.5 80.507 70.1C80.707 70.6 80.857 71.2 80.957 71.9C81.157 72.6 81.307 73.3 81.407 74C81.607 74.6 81.757 74.95 81.857 75.05C81.857 75.85 82.407 77 83.507 78.5C84.607 80 85.407 81.7 85.907 83.6L86.057 85.25L86.507 85.85C87.107 86.75 87.457 87.8 87.557 89C87.657 90.2 87.957 91.3 88.457 92.3L88.757 92.9L88.457 93.2C89.257 93.8 89.857 94.5 90.257 95.3C90.757 96.2 91.107 97.05 91.307 97.85C91.507 98.75 91.657 99.55 91.757 100.25C91.857 100.95 92.007 101.35 92.207 101.45L93.107 104.9C93.207 105.1 93.407 105.5 93.707 106.1C94.107 106.7 94.507 107.35 94.907 108.05C95.307 108.75 95.657 109.35 95.957 109.85C96.257 110.45 96.407 110.75 96.407 110.75V112.25C96.607 112.45 97.007 113.05 97.607 114.05C98.307 115.15 98.757 115.85 98.957 116.15L99.107 116.9C99.107 117 99.107 117.05 99.107 117.05C99.207 117.15 99.257 117.3 99.257 117.5L100.157 120.8H98.657L97.907 120.2C97.407 119.9 96.957 119.75 96.557 119.75L95.957 120.05L96.557 121.1L95.507 121.55L94.607 121.25L89.057 124.1L88.757 121.7C88.657 121.6 88.557 121.55 88.457 121.55C88.257 121.55 88.007 121.65 87.707 121.85C87.507 122.05 87.157 122.25 86.657 122.45L85.457 121.1L85.007 120.2C84.607 119.8 84.107 118.9 83.507 117.5C82.907 116.1 82.507 114.95 82.307 114.05L76.007 97.25V97.4C75.307 97.4 74.957 97.05 74.957 96.35H74.657L74.357 95.75C74.257 95.65 74.207 95.35 74.207 94.85L74.507 94.4L75.107 94.7L74.957 94.4C74.957 93.9 74.757 93.6 74.357 93.5L73.907 94.25C73.407 93.95 73.107 93.6 73.007 93.2C72.907 92.8 72.807 92.4 72.707 92V91.7L72.857 92L73.157 91.4L72.857 90.95L72.407 91.25L72.557 89.75C72.557 89.55 72.557 89.45 72.557 89.45C72.657 89.35 72.707 89.2 72.707 89V88.7V88.25C72.507 88.45 72.357 88.85 72.257 89.45L72.107 88.85C72.107 88.45 72.307 88.05 72.707 87.65C73.107 87.15 73.307 86.8 73.307 86.6C73.307 86.2 73.257 86 73.157 86C73.257 86 73.307 85.9 73.307 85.7C73.307 85.1 73.207 84.65 73.007 84.35C72.807 84.05 72.607 83.85 72.407 83.75C72.407 83.65 72.457 83.6 72.557 83.6C72.757 83.6 72.857 83.55 72.857 83.45C72.857 83.05 72.757 82.85 72.557 82.85C72.357 82.75 72.157 82.55 71.957 82.25L71.657 83H72.257L71.057 83.6L71.507 84.2H71.807V85.25L71.507 85.55L71.957 85.85C72.257 85.85 72.407 85.5 72.407 84.8L72.857 85.4C72.257 85.8 71.957 86.4 71.957 87.2C71.957 87.6 72.007 87.9 72.107 88.1C72.007 88.1 71.857 87.9 71.657 87.5C71.457 87.1 71.257 86.7 71.057 86.3C70.857 85.8 70.657 85.35 70.457 84.95C70.357 84.55 70.307 84.3 70.307 84.2L70.457 83.3L70.157 83.15V82.4L69.107 79.4H68.657C68.557 79.4 68.507 79.45 68.507 79.55C68.507 79.55 68.457 79.55 68.357 79.55C68.657 79.25 68.807 79 68.807 78.8V78.5L68.357 78.95L68.207 78.65C68.207 78.35 68.257 78.1 68.357 77.9C68.457 77.6 68.507 77.35 68.507 77.15C68.407 76.35 67.907 75.6 67.007 74.9C66.207 74.2 65.757 73.5 65.657 72.8V72.05C65.557 70.85 65.357 69.8 65.057 68.9C64.857 67.9 64.757 67 64.757 66.2L64.607 65.3L62.957 66.8H62.657C61.957 66.8 61.507 67 61.307 67.4C61.207 67.7 60.907 68.1 60.407 68.6L54.107 74.75C54.207 74.85 54.257 74.95 54.257 75.05C54.257 75.35 54.107 75.65 53.807 75.95C53.607 76.15 53.507 76.35 53.507 76.55C53.507 76.75 53.557 76.9 53.657 77C53.757 77.1 53.807 77.25 53.807 77.45C53.807 78.05 53.457 78.85 52.757 79.85C52.057 80.85 51.707 81.4 51.707 81.5L51.557 84.5C51.057 84.8 50.807 85.4 50.807 86.3C50.907 87.1 50.907 87.7 50.807 88.1L50.507 88.25L50.357 92.75C50.357 92.95 50.307 93.5 50.207 94.4C50.107 95.2 49.957 96.05 49.757 96.95C49.657 97.85 49.557 98.65 49.457 99.35C49.357 100.15 49.257 100.55 49.157 100.55L47.807 100.25L46.607 98.9V100.7L47.057 101.6C46.857 101.7 46.507 102.1 46.007 102.8C45.507 103.6 45.207 104.4 45.107 105.2V105.35C45.107 105.55 45.207 105.75 45.407 105.95L44.657 106.7C44.257 106.5 44.057 106.35 44.057 106.25C44.057 106.15 44.057 106.1 44.057 106.1C44.157 106.1 44.207 106.05 44.207 105.95H44.057C43.957 105.95 43.807 106 43.607 106.1C43.507 106.2 43.357 106.3 43.157 106.4C42.557 106.2 42.107 105.95 41.807 105.65C41.607 105.45 41.407 105.2 41.207 104.9C41.007 104.7 40.757 104.5 40.457 104.3C40.157 104.1 39.707 104 39.107 104C39.307 104.3 39.557 104.55 39.857 104.75C40.157 105.05 40.307 105.6 40.307 106.4V106.7C40.007 106.7 39.657 106.55 39.257 106.25C38.957 105.95 38.657 105.6 38.357 105.2C37.957 105.2 37.607 105.35 37.307 105.65C37.107 106.05 36.907 106.4 36.707 106.7C36.407 106.2 35.607 105.6 34.307 104.9C33.107 104.2 32.257 103.6 31.757 103.1L32.057 101.15V98.45L31.757 97.85C31.057 97.75 30.707 97.2 30.707 96.2C30.707 95.5 30.857 94.65 31.157 93.65C31.457 92.55 31.607 91.75 31.607 91.25V87.95C31.607 86.75 31.707 85.6 31.907 84.5C32.207 83.4 32.457 82.25 32.657 81.05L32.957 79.25C32.957 79.05 32.957 78.55 32.957 77.75C33.057 76.95 33.157 76.1 33.257 75.2C33.357 74.2 33.407 73.35 33.407 72.65C33.507 71.85 33.557 71.35 33.557 71.15L34.307 68.45C34.307 67.35 34.507 65.85 34.907 63.95C35.407 62.05 35.657 60.85 35.657 60.35V57.05L36.257 55.7C36.257 55.4 36.457 54.6 36.857 53.3C37.257 51.9 37.457 51.05 37.457 50.75ZM76.457 84.5C76.757 84.9 77.007 85.5 77.207 86.3C77.507 87 77.757 87.75 77.957 88.55C78.257 89.25 78.457 89.9 78.557 90.5C78.757 91 78.957 91.25 79.157 91.25H79.607L79.157 90.95L77.807 85.25L77.507 85.4C77.407 84 77.007 82.75 76.307 81.65C75.707 80.55 75.407 79.35 75.407 78.05V77.3L74.807 77.45L75.407 76.7C75.107 76.2 74.757 75.95 74.357 75.95L74.657 75.65L74.207 74.75V73.4C74.207 73 74.007 72.75 73.607 72.65C73.307 72.45 73.057 72.25 72.857 72.05L72.557 72.2C72.557 72.4 72.657 72.9 72.857 73.7C73.157 74.4 73.307 74.8 73.307 74.9L73.007 75.5L72.857 74.75C72.757 74.75 72.707 74.7 72.707 74.6C72.707 74.5 72.607 74.45 72.407 74.45V75.2V76.25H72.857L72.707 77.15C72.707 77.55 72.807 77.95 73.007 78.35C73.207 78.75 73.307 79.1 73.307 79.4H72.557L72.857 80.75L73.307 79.7L73.907 79.85L74.357 79.4L74.657 79.85C74.657 80.05 74.507 80.2 74.207 80.3C73.907 80.3 73.757 80.55 73.757 81.05C73.757 81.15 73.907 81.2 74.207 81.2C74.507 81.2 74.707 81.15 74.807 81.05C74.907 81.25 75.007 81.4 75.107 81.5C75.307 81.5 75.407 81.55 75.407 81.65L75.557 81.95L74.807 81.5C74.507 81.5 74.207 81.55 73.907 81.65C73.707 81.65 73.607 81.9 73.607 82.4L74.357 82.25L74.207 82.55H74.657C74.857 82.55 75.107 82.5 75.407 82.4C75.807 82.2 76.107 82.1 76.307 82.1L76.457 84.5ZM47.057 88.4C47.257 87.7 47.557 86.45 47.957 84.65C48.457 82.85 48.907 80.95 49.307 78.95C49.807 76.95 50.257 75.05 50.657 73.25C51.057 71.45 51.307 70.2 51.407 69.5L51.707 67.85L49.907 71.15L47.057 88.4ZM50.657 63.05L51.557 63.2C51.757 62.1 51.907 60.9 52.007 59.6C52.207 58.3 52.357 57.1 52.457 56L52.157 53.75C51.957 53.85 51.757 54.25 51.557 54.95C51.457 55.55 51.307 56.3 51.107 57.2C51.007 58 50.907 58.8 50.807 59.6C50.707 60.3 50.657 60.75 50.657 60.95L50.807 62.15L50.657 63.05ZM79.907 93.65L81.257 99.35C81.457 100.15 81.607 100.95 81.707 101.75C81.907 102.55 82.107 103.35 82.307 104.15H82.607C82.607 103.85 82.507 103.15 82.307 102.05C82.107 100.95 81.857 99.75 81.557 98.45C81.357 97.25 81.107 96.1 80.807 95C80.607 93.9 80.407 93.15 80.207 92.75L79.907 93.65ZM52.607 72.35C52.607 72.55 52.707 72.75 52.907 72.95C53.207 73.05 53.457 73.2 53.657 73.4L54.107 64.4C54.007 64.9 53.857 65.6 53.657 66.5C53.457 67.3 53.257 68.15 53.057 69.05C52.957 69.85 52.857 70.6 52.757 71.3C52.657 71.9 52.607 72.25 52.607 72.35ZM75.857 91.25C75.857 91.55 76.007 91.8 76.307 92C76.607 92.2 76.807 92.3 76.907 92.3V91.7C76.907 90.8 76.707 89.9 76.307 89L75.707 89.45L75.107 88.85V89.3C75.107 89.9 74.807 90.35 74.207 90.65L74.657 90.8C74.457 91.2 74.257 91.45 74.057 91.55C73.957 91.55 73.657 91.8 73.157 92.3L75.107 91.55L75.557 90.8C75.557 90.9 75.757 90.95 76.157 90.95L75.857 91.25ZM74.657 85.7C74.657 86.1 74.757 86.55 74.957 87.05C75.157 87.55 75.357 88 75.557 88.4V86.15C75.857 86.05 76.007 85.85 76.007 85.55C75.907 85.35 75.757 84.9 75.557 84.2C75.357 83.4 75.157 82.95 74.957 82.85C74.757 83.05 74.557 83.4 74.357 83.9C74.257 84.3 74.207 84.65 74.207 84.95C74.207 85.35 74.407 85.55 74.807 85.55L74.657 85.7ZM77.207 77.9C77.207 78.1 77.307 78.5 77.507 79.1C77.707 79.7 77.907 80.35 78.107 81.05C78.407 81.65 78.657 82.2 78.857 82.7C79.157 83.2 79.407 83.45 79.607 83.45L79.457 83.15C79.357 82.75 79.257 82.25 79.157 81.65C79.057 80.95 78.907 80.3 78.707 79.7L78.107 77.45L77.507 76.7C77.507 76.9 77.457 77.1 77.357 77.3C77.257 77.5 77.207 77.7 77.207 77.9ZM71.207 79.55V79.85C71.207 80.45 70.907 81.05 70.307 81.65H70.607C71.107 81.65 71.357 81.4 71.357 80.9L71.807 81.2L71.507 81.65C71.807 81.55 72.007 81.35 72.107 81.05C72.307 80.75 72.407 80.45 72.407 80.15L71.807 80.6L71.657 78.95L71.207 78.8C71.407 78.7 71.557 78.5 71.657 78.2C71.757 77.9 71.807 77.65 71.807 77.45C71.407 77.45 71.007 77.6 70.607 77.9C70.307 78.2 70.157 78.6 70.157 79.1C70.157 79.3 70.307 79.4 70.607 79.4C71.007 79.3 71.207 79.35 71.207 79.55ZM80.657 88.7C80.757 89.1 80.907 89.7 81.107 90.5C81.407 91.2 81.807 91.55 82.307 91.55V91.25C82.207 90.85 82.007 90.25 81.707 89.45C81.407 88.55 81.157 87.85 80.957 87.35C80.957 87.55 80.907 87.75 80.807 87.95C80.707 88.15 80.657 88.3 80.657 88.4V88.7ZM71.957 69.2C72.057 69.3 72.157 69.65 72.257 70.25C72.357 70.85 72.407 71.25 72.407 71.45H73.007L72.857 68.6C72.857 68.1 72.657 67.85 72.257 67.85L71.657 68.15L71.957 69.2ZM77.057 90.35C77.057 90.55 77.107 90.8 77.207 91.1C77.307 91.4 77.407 91.65 77.507 91.85L78.257 92.9V92.45C78.157 92.15 78.057 91.7 77.957 91.1C77.857 90.4 77.557 89.95 77.057 89.75V90.35ZM81.857 86.75C81.757 86.65 81.807 86.75 82.007 87.05C82.207 87.35 82.307 87.6 82.307 87.8H82.757C82.657 87.3 82.507 86.75 82.307 86.15C82.107 85.45 81.907 84.85 81.707 84.35L81.857 86.75ZM71.507 72.65C71.507 72.85 71.507 73.05 71.507 73.25C71.607 73.35 71.907 73.4 72.407 73.4L72.257 72.5H71.957V71.15C71.757 71.55 71.607 71.85 71.507 72.05C71.507 72.15 71.507 72.35 71.507 72.65ZM71.507 68.75C71.007 69.05 70.757 69.5 70.757 70.1H71.507V68.75ZM73.457 88.7C73.457 89 73.507 89.2 73.607 89.3L74.207 89.6L74.357 89.15L74.207 89.3C74.107 89.3 74.057 89.1 74.057 88.7V88.25H73.757L73.457 88.7ZM70.157 75.95C70.357 76.05 70.657 76.4 71.057 77V75.8C70.957 75.8 70.857 75.8 70.757 75.8C70.657 75.7 70.557 75.65 70.457 75.65L70.157 75.95ZM79.907 85.4C79.907 86.3 80.007 86.8 80.207 86.9L80.657 87.05L80.507 86.9C80.507 86.6 80.457 86.3 80.357 86C80.357 85.7 80.207 85.5 79.907 85.4ZM70.457 75.05C70.757 75.05 70.907 75 70.907 74.9C70.907 74.8 70.857 74.7 70.757 74.6H70.307V73.7L70.157 73.85C70.057 73.95 70.007 74.1 70.007 74.3V74.9L70.457 75.05Z" fill="black"/>
</g>
<defs>
<clipPath id="clip0_11_63">
<rect width="128" height="128" rx="64" fill="white"/>
</clipPath>
</defs>
</svg>
